<?xml version="1.0" encoding="UTF-8"?>
<!DOCTYPE svg PUBLIC "-//W3C//DTD SVG 1.1//EN" "http://www.w3.org/Graphics/SVG/1.1/DTD/svg11.dtd">
<!-- Creator: CorelDRAW 2017 -->
<svg xmlns="http://www.w3.org/2000/svg" xml:space="preserve" width="0.738787in" height="0.715035in" version="1.1" style="shape-rendering:geometricPrecision; text-rendering:geometricPrecision; image-rendering:optimizeQuality; fill-rule:evenodd; clip-rule:evenodd"
viewBox="0 0 83 80"
 xmlns:xlink="http://www.w3.org/1999/xlink">
 <defs>
  <style type="text/css">
   <![CDATA[
    .fil1 {fill:#E6E7E8}
    .fil0 {fill:#E63338;fill-rule:nonzero}
   ]]>
  </style>
 </defs>
 <g id="Layer_x0020_1">
  <metadata id="CorelCorpID_0Corel-Layer"/>
  <g>
   <path class="fil0" d="M50 31l-10 -30 1 -1 10 30 -1 1 -1 -1zm1 1l0 0 0 -1 1 1zm31 0l-31 0 0 -2 31 0 0 1 0 0zm-26 17l25 -19 1 1 -25 19 -1 0 0 -1zm0 1l0 -1 0 0 0 1zm10 30l-10 -30 1 -1 10 30 -1 1 0 0zm-24 -20l25 19 -1 1 -25 -19 0 -1 1 0zm-1 0l0 0 0 0 -1 0zm-25 19l25 -19 1 1 -25 19 -1 -1 0 0zm11 -29l-10 30 -1 -1 10 -30 1 0 0 1zm0 -1l0 0 0 1 0 -1zm-25 -19l25 19 -1 1 -25 -19 0 -1 0 0zm31 1l-31 0 0 -2 31 0 1 1 -1 1zm1 -1l0 1 0 0 1 -1zm10 -30l-10 30 -1 -1 10 -30 1 0 0 1z"/>
   <polygon id="1" class="fil1" points="41,0 51,31 82,30 57,49 67,79 41,61 16,79 26,49 0,30 32,31 "/>
  </g>
 </g>
</svg>
